# xmcd
#
# Track frame offsets:
#	150
#	6850
#	14107
#	21657
#	29000
#	36762
#	42857
#	49205
#	56410
#	63312
#	71105
#	80440
#	108900
#	116717
#	125692
#	133602
#	140677
#	152477
#	159955
#	166730
#	176625
#	183712
#	196550
#	203535
#
# Disc length: 3300 seconds
#
# Revision: 1
# Processed by: cddbd v1.5.1PL0 Copyright (c) Steve Scherf et al.
# Submitted via: CDex 1.50Beta5
#
DISCID=510ce218
DTITLE=川井憲次 - はいぱーぽりす オリジナル・サウンドトラック Vol.2
DYEAR=1900
DGENRE=Anime
TTITLE0=Goin' Town
TTITLE1=日々是好日
TTITLE2=Private Eyes
TTITLE3=朔之進のテーマ
TTITLE4=らう゛・じゃぱねすく
TTITLE5=じゅにあず、大暴れ!
TTITLE6=もう許さな〜い!!
TTITLE7=アブない予感
TTITLE8=闇の使者
TTITLE9=Danger Zone
TTITLE10=どうにもならないの?
TTITLE11=夏姫と桜のはいぱー漫才「こだわりの一品」
TTITLE12=ふたりのブルース
TTITLE13=トミィのテーマ
TTITLE14=Dear Friends
TTITLE15=疑念
TTITLE16=心の扉
TTITLE17=Rainy Day
TTITLE18=見えざる敵
TTITLE19=越えられぬ壁
TTITLE20=未知なる領域
TTITLE21=This Beautiful World
TTITLE22=Heart To Heart
TTITLE23=夏姫と桜のはいぱー漫才「手紙(ラブレター)」
EXTD=
EXTT0=
EXTT1=
EXTT2=
EXTT3=
EXTT4=
EXTT5=
EXTT6=
EXTT7=
EXTT8=
EXTT9=
EXTT10=
EXTT11=
EXTT12=
EXTT13=
EXTT14=
EXTT15=
EXTT16=
EXTT17=
EXTT18=
EXTT19=
EXTT20=
EXTT21=
EXTT22=
EXTT23=
PLAYORDER=
